<?xml version="1.0" standalone="no"?>
<!DOCTYPE svg PUBLIC "-//W3C//DTD SVG 20010904//EN"
 "http://www.w3.org/TR/2001/REC-SVG-20010904/DTD/svg10.dtd">
<svg version="1.0" xmlns="http://www.w3.org/2000/svg"
 width="400.000000pt" height="400.000000pt" viewBox="0 0 400.000000 400.000000"
 preserveAspectRatio="xMidYMid meet">
<metadata>
Created by potrace 1.14, written by Peter Selinger 2001-2017
</metadata>
<g transform="translate(0.000000,400.000000) scale(0.100000,-0.100000)"
fill="#000000" stroke="none">
<path d="M1930 3764 c-14 -2 -63 -9 -110 -15 -297 -37 -592 -203 -774 -434
-22 -27 -52 -63 -67 -80 -49 -53 -142 -321 -164 -470 -4 -22 -8 -47 -10 -55
-26 -98 -26 -496 0 -620 3 -14 8 -47 10 -75 9 -94 45 -166 143 -290 101 -127
247 -259 394 -357 64 -43 66 -45 48 -61 -11 -9 -26 -14 -34 -11 -24 9 -279
-255 -397 -411 -63 -83 -135 -197 -178 -280 -20 -38 -44 -81 -53 -95 -37 -55
-107 -289 -134 -448 -3 -15 -7 -35 -10 -44 -5 -17 67 -18 1410 -18 779 0 1416
3 1416 6 0 38 -110 414 -153 524 -32 82 -181 325 -227 370 -3 3 -20 23 -39 45
-55 65 -234 248 -271 277 -19 15 -48 39 -65 53 -16 15 -47 39 -69 53 -38 26
-38 26 -15 36 127 53 173 82 263 169 52 51 99 103 105 117 6 14 29 50 51 80
181 247 259 439 262 650 1 62 -10 171 -27 255 -8 39 -16 84 -19 100 -7 41 -52
189 -64 212 -6 10 -10 20 -10 23 -2 29 -82 187 -138 270 -56 85 -160 189 -249
252 -38 27 -146 86 -240 132 -159 78 -202 93 -380 134 -42 9 -161 13 -205 6z"/>
</g>
</svg>
